<svg xmlns="http://www.w3.org/2000/svg" version="1.1" viewBox="-5.0 -10.0 110.0 135.0" fill="#fff">
 <path d="m86.082 82.332c-0.92578-6.4375-3.5625-12.512-7.625-17.586-4.0664-5.0781-9.418-8.9766-15.5-11.289 5.8438-3.7578 9.7695-9.8672 10.758-16.746 0.98828-6.875-1.0586-13.844-5.6094-19.094-4.5508-5.2539-11.156-8.2695-18.105-8.2695s-13.555 3.0156-18.105 8.2695c-4.5508 5.25-6.5977 12.219-5.6094 19.094 0.98828 6.8789 4.9141 12.988 10.758 16.746-6.082 2.3125-11.434 6.2109-15.5 11.289-4.0625 5.0742-6.6992 11.148-7.625 17.586-0.28906 2.0977 0.33984 4.2188 1.7305 5.8164 1.3906 1.5938 3.4023 2.5156 5.5195 2.5195h57.664c2.1172-0.003907 4.1289-0.92578 5.5195-2.5195 1.3906-1.5977 2.0195-3.7188 1.7305-5.8164zm-53.789-49c0-4.6953 1.8633-9.1992 5.1836-12.52 3.3242-3.3203 7.8281-5.1875 12.523-5.1875s9.1992 1.8672 12.523 5.1875c3.3203 3.3203 5.1836 7.8242 5.1836 12.52 0 4.6992-1.8633 9.2031-5.1836 12.523-3.3242 3.3203-7.8281 5.1875-12.523 5.1875-4.6914-0.011719-9.1914-1.8828-12.508-5.1992-3.3203-3.3203-5.1914-7.8164-5.1992-12.512zm47.375 50.668c-0.21875 0.23047-0.51953 0.36328-0.83594 0.375h-57.664c-0.31641-0.011719-0.61719-0.14453-0.83594-0.375-0.16016-0.18359-0.25-0.42188-0.25-0.66797 1.3594-9.7031 7.3398-18.145 16.043-22.645s19.047-4.5 27.75 0 14.684 12.941 16.043 22.645c0 0.24609-0.089844 0.48438-0.25 0.66797z"/>
<text x="0.0" y="117.5" font-size="5.0" font-weight="bold" font-family="Arbeit Regular, Helvetica, Arial-Unicode, Arial, Sans-serif" fill="#000000">Created by Dwi ridwanto</text><text x="0.0" y="122.5" font-size="5.0" font-weight="bold" font-family="Arbeit Regular, Helvetica, Arial-Unicode, Arial, Sans-serif" fill="#000000">from Noun Project</text></svg>